<?xml version="1.0" standalone="no"?>
<!DOCTYPE svg PUBLIC "-//W3C//DTD SVG 20010904//EN"
 "http://www.w3.org/TR/2001/REC-SVG-20010904/DTD/svg10.dtd">
<svg version="1.0" xmlns="http://www.w3.org/2000/svg"
 width="100.000000pt" height="100.000000pt" viewBox="0 0 100.000000 100.000000"
 preserveAspectRatio="xMidYMid meet">
<metadata>
Created by potrace 1.11, written by Peter Selinger 2001-2013
</metadata>
<g transform="translate(0.000000,100.000000) scale(0.100000,-0.100000)"
fill="#000000" stroke="none">
<path d="M524 986 c-12 -8 -27 -29 -34 -46 -7 -16 -18 -30 -25 -30 -6 0 -23
-9 -36 -21 -30 -26 -32 -88 -4 -119 10 -11 20 -30 22 -41 3 -20 3 -20 -27 1
-21 15 -41 21 -64 18 -20 -2 -38 2 -49 13 -38 36 -124 7 -134 -44 -4 -17 -15
-32 -28 -37 -56 -21 -71 -90 -30 -138 14 -17 28 -44 31 -61 15 -75 114 -95
161 -32 10 14 13 13 22 -9 10 -23 79 -212 136 -370 17 -49 29 -66 44 -68 12
-2 21 -1 21 1 0 3 -36 105 -80 228 -48 137 -75 225 -68 228 6 2 24 16 41 31
24 21 30 34 28 61 -4 43 -4 65 0 109 2 31 3 32 12 13 12 -28 44 -41 88 -36 35
3 35 3 31 -29 -3 -18 -11 -42 -18 -53 -18 -26 -18 -65 2 -93 12 -18 15 -58 16
-217 1 -151 4 -195 15 -199 18 -7 22 20 21 139 0 155 -1 148 23 134 12 -6 32
-9 46 -6 24 4 24 3 18 -32 -4 -20 -8 -40 -9 -46 -1 -5 -5 -16 -9 -22 -5 -7 -6
-13 -3 -13 3 0 -3 -29 -13 -65 l-18 -65 22 0 c18 0 24 8 31 42 9 41 11 43 61
54 52 12 103 8 103 -6 0 -14 -54 -27 -102 -25 -54 3 -57 -15 -5 -36 88 -37
191 31 144 95 -28 39 -144 38 -166 -2 -18 -32 -18 -7 1 76 13 52 23 80 30 76
24 -15 72 -4 100 23 24 23 28 34 26 70 -1 24 4 49 10 55 15 15 16 63 2 89 -12
21 -66 52 -79 45 -5 -3 -21 6 -37 19 -52 44 -130 26 -149 -35 -11 -35 -25 -22
-25 25 0 44 1 46 28 42 66 -9 120 43 107 103 -4 16 -1 45 6 65 12 31 11 40 -5
70 -18 33 -68 61 -88 49 -5 -3 -18 2 -28 11 -26 24 -90 30 -116 11z"/>
<path d="M254 334 c-5 -1 -22 -5 -37 -9 -16 -3 -39 -17 -52 -31 -60 -65 48
-143 149 -109 37 13 68 43 60 57 -3 5 -13 4 -22 -1 -23 -11 -130 -7 -143 6 -8
8 -7 13 1 18 18 11 121 14 148 4 30 -11 28 2 -5 33 -25 23 -73 38 -99 32z"/>
</g>
</svg>
